<svg xmlns="http://www.w3.org/2000/svg" viewBox="0 0 1400 1422"><defs><style>.cls-1{fill:#fff;}.cls-2{fill:#ed1c24;}</style></defs><title>Makey-Outlined</title><g id="Makey"><path class="cls-1" d="M1333.63,624.2s-24-237.06-277.49-228.06c0,0-18-31.5-48-55.5,0,0-1.78-193.07-175.34-273.18a288.32,288.32,0,0,0-267.74-1C389.37,146,387.58,340.64,387.58,340.64c-30,24-48,55.5-48,55.5C86.1,387.14,62.1,624.2,62.1,624.2V747.62l47.49.5c-36.5,243-20.49,291.49-20.49,291.49,6,57,79.49,111.12,79.49,111.12C243.59,1196.36,330,1198,330,1198v6l-62.41,47.1,1.5,103.49h857.55l1.5-103.49-62.41-47.1v-6s86.41-1.64,161.4-47.27c0,0,73.5-54.13,79.5-111.12,0,0,16-48.5-20.5-291.49l47.5-.5Z"/><path class="cls-2" d="M377.08,624.2V760a86,86,0,0,0,86,86H935.91a85.93,85.93,0,0,0,85.92-86V624.2Z"/><path class="cls-2" d="M1021.83,605.33v-151a85.94,85.94,0,0,0-85.92-86H463.05a86,86,0,0,0-86,86v151Z"/><path class="cls-2" d="M699.49,84.41c-146.3,0-264.91,117.64-264.91,262.74H964.34C964.34,202.05,845.75,84.41,699.49,84.41Z"/><path class="cls-1" d="M611.89,256a57.4,57.4,0,1,1-57.4-57.39A57.4,57.4,0,0,1,611.89,256Z"/><path class="cls-1" d="M901.82,256a57.4,57.4,0,1,1-57.39-57.39A57.4,57.4,0,0,1,901.82,256Z"/><rect class="cls-2" x="775.07" y="864.43" width="183.05" height="132.93"/><polygon class="cls-2" points="755.58 1215.81 1023.07 1215.81 987.25 1015.15 769.92 1015.15 755.58 1215.81"/><polygon class="cls-2" points="738.89 1310.07 1082.76 1310.07 1082.76 1270.24 1032.63 1232.07 738.89 1232.07 738.89 1310.07"/><rect class="cls-2" x="440.89" y="864.43" width="182.92" height="132.93"/><polygon class="cls-2" points="643.39 1215.81 375.85 1215.81 411.7 1015.15 629.02 1015.15 643.39 1215.81"/><polygon class="cls-2" points="660.1 1310.07 316.16 1310.07 316.16 1270.24 366.33 1232.07 660.1 1232.07 660.1 1310.07"/><path class="cls-2" d="M1049.76,1152.73V1015.12H1271S1243.16,1152.73,1049.76,1152.73Z"/><path class="cls-2" d="M1245.29,703.75h44.31V640.56c0-61.54-59.07-198.87-204.33-198.87H1042.5V703.75H1096v63.93h-19.5l-26.72,229H1271l-26.73-229h-19.5V703.75Z"/><path class="cls-2" d="M349.45,1152.73V1015.12H128.23S156.05,1152.73,349.45,1152.73Z"/><path class="cls-2" d="M356.69,703.75V441.69H313.92c-145.25,0-204.33,137.33-204.33,198.87v63.19h64.87v63.93H155l-26.72,229H349.45l-26.71-229H303.23V703.75Z"/><circle class="cls-1" cx="699.6" cy="607.15" r="172.36"/><path class="cls-2" d="M700.81,660h-.59L650.06,494.67H584.69v225h44.38v-156h.61c4.88,25.81,7.92,35.55,13.08,52.58l33.43,103.37H720l33.75-103.37c4.85-16.4,9.12-30.72,12.46-50.15h.61V719.63H814.5v-225H747.66Z"/></g></svg>